<mxfile host="65bd71144e">
    <diagram id="M_KvGZFXZzvzjEockqJb" name="Page-1">
        <mxGraphModel dx="886" dy="679" grid="1" gridSize="10" guides="1" tooltips="1" connect="1" arrows="1" fold="1" page="1" pageScale="1" pageWidth="1500" pageHeight="1000" background="#ffffff" math="0" shadow="1">
            <root>
                <mxCell id="0"/>
                <mxCell id="1" parent="0"/>
                <mxCell id="21" style="edgeStyle=none;html=1;entryX=0;entryY=0.5;entryDx=0;entryDy=0;startArrow=diamondThin;startFill=1;endArrow=none;endFill=0;sketch=1;curveFitting=1;jiggle=2;fontColor=#1A1A1A;labelBackgroundColor=none;strokeColor=#1A1A1A;" edge="1" parent="1" source="2" target="3">
                    <mxGeometry relative="1" as="geometry"/>
                </mxCell>
                <mxCell id="23" style="edgeStyle=none;html=1;entryX=0;entryY=0.5;entryDx=0;entryDy=0;startArrow=diamondThin;startFill=1;endArrow=none;endFill=0;sketch=1;curveFitting=1;jiggle=2;fontColor=#1A1A1A;labelBackgroundColor=none;strokeColor=#1A1A1A;" edge="1" parent="1" source="2" target="4">
                    <mxGeometry relative="1" as="geometry"/>
                </mxCell>
                <mxCell id="2" value="PointBuffer" style="rounded=0;whiteSpace=wrap;html=1;sketch=1;curveFitting=1;jiggle=2;strokeColor=#1A1A1A;fillColor=none;fontColor=#1A1A1A;labelBackgroundColor=none;" vertex="1" parent="1">
                    <mxGeometry x="40" y="111" width="120" height="60" as="geometry"/>
                </mxCell>
                <mxCell id="20" value="" style="edgeStyle=none;html=1;entryX=0;entryY=0.5;entryDx=0;entryDy=0;endArrow=none;endFill=0;startArrow=diamondThin;startFill=1;sketch=1;curveFitting=1;jiggle=2;fontColor=#1A1A1A;labelBackgroundColor=none;strokeColor=#1A1A1A;" edge="1" parent="1" source="3" target="12">
                    <mxGeometry relative="1" as="geometry"/>
                </mxCell>
                <mxCell id="3" value="PointLayout" style="rounded=0;whiteSpace=wrap;html=1;sketch=1;curveFitting=1;jiggle=2;fontColor=#1A1A1A;labelBackgroundColor=none;strokeColor=#1A1A1A;fillColor=none;" vertex="1" parent="1">
                    <mxGeometry x="240" y="211" width="120" height="60" as="geometry"/>
                </mxCell>
                <mxCell id="4" value="Memory Region" style="rounded=0;whiteSpace=wrap;html=1;sketch=1;curveFitting=1;jiggle=2;fontColor=#1A1A1A;labelBackgroundColor=none;strokeColor=#1A1A1A;fillColor=none;" vertex="1" parent="1">
                    <mxGeometry x="240" y="111" width="120" height="60" as="geometry"/>
                </mxCell>
                <mxCell id="7" value="1" style="text;html=1;strokeColor=none;fillColor=none;align=center;verticalAlign=middle;whiteSpace=wrap;rounded=0;sketch=1;curveFitting=1;jiggle=2;fontColor=#1A1A1A;labelBackgroundColor=none;" vertex="1" parent="1">
                    <mxGeometry x="201" y="236" width="60" height="30" as="geometry"/>
                </mxCell>
                <mxCell id="8" value="1..N" style="text;html=1;strokeColor=none;fillColor=none;align=center;verticalAlign=middle;whiteSpace=wrap;rounded=0;sketch=1;curveFitting=1;jiggle=2;fontColor=#1A1A1A;labelBackgroundColor=none;" vertex="1" parent="1">
                    <mxGeometry x="200" y="119" width="55" height="27.5" as="geometry"/>
                </mxCell>
                <mxCell id="10" value="PointAttributeMember" style="swimlane;fontStyle=0;align=center;verticalAlign=top;childLayout=stackLayout;horizontal=1;startSize=30;horizontalStack=0;resizeParent=1;resizeParentMax=0;resizeLast=0;collapsible=0;marginBottom=0;html=1;sketch=1;curveFitting=1;jiggle=2;fontColor=#1A1A1A;labelBackgroundColor=none;strokeColor=#1A1A1A;fillColor=none;" vertex="1" parent="1">
                    <mxGeometry x="430" y="181" width="140" height="110" as="geometry"/>
                </mxCell>
                <mxCell id="11" value="attributes" style="text;html=1;strokeColor=#1A1A1A;fillColor=none;align=center;verticalAlign=middle;spacingLeft=4;spacingRight=4;overflow=hidden;rotatable=0;points=[[0,0.5],[1,0.5]];portConstraint=eastwest;sketch=1;curveFitting=1;jiggle=2;fontColor=#1A1A1A;labelBackgroundColor=none;" vertex="1" parent="10">
                    <mxGeometry y="30" width="140" height="20" as="geometry"/>
                </mxCell>
                <mxCell id="12" value="name: &amp;amp;str" style="text;html=1;strokeColor=#1A1A1A;fillColor=none;align=left;verticalAlign=middle;spacingLeft=4;spacingRight=4;overflow=hidden;rotatable=0;points=[[0,0.5],[1,0.5]];portConstraint=eastwest;sketch=1;curveFitting=1;jiggle=2;fontColor=#1A1A1A;labelBackgroundColor=none;" vertex="1" parent="10">
                    <mxGeometry y="50" width="140" height="20" as="geometry"/>
                </mxCell>
                <mxCell id="18" value="datatype: enum" style="text;html=1;strokeColor=#1A1A1A;fillColor=none;align=left;verticalAlign=middle;spacingLeft=4;spacingRight=4;overflow=hidden;rotatable=0;points=[[0,0.5],[1,0.5]];portConstraint=eastwest;sketch=1;curveFitting=1;jiggle=2;fontColor=#1A1A1A;labelBackgroundColor=none;" vertex="1" parent="10">
                    <mxGeometry y="70" width="140" height="20" as="geometry"/>
                </mxCell>
                <mxCell id="19" value="offset: u64" style="text;html=1;strokeColor=#1A1A1A;fillColor=none;align=left;verticalAlign=middle;spacingLeft=4;spacingRight=4;overflow=hidden;rotatable=0;points=[[0,0.5],[1,0.5]];portConstraint=eastwest;sketch=1;curveFitting=1;jiggle=2;fontColor=#1A1A1A;labelBackgroundColor=none;" vertex="1" parent="10">
                    <mxGeometry y="90" width="140" height="20" as="geometry"/>
                </mxCell>
                <mxCell id="24" value="1..N" style="text;html=1;strokeColor=none;fillColor=none;align=center;verticalAlign=middle;whiteSpace=wrap;rounded=0;sketch=1;curveFitting=1;jiggle=2;fontColor=#1A1A1A;labelBackgroundColor=none;" vertex="1" parent="1">
                    <mxGeometry x="386" y="216" width="60" height="30" as="geometry"/>
                </mxCell>
                <mxCell id="62" style="edgeStyle=none;html=1;entryX=0;entryY=0.5;entryDx=0;entryDy=0;fontFamily=Courier New;startArrow=diamondThin;startFill=1;endArrow=none;endFill=0;sketch=1;curveFitting=1;jiggle=2;fontColor=#1A1A1A;labelBackgroundColor=none;strokeColor=#1A1A1A;" edge="1" parent="1" source="25" target="26">
                    <mxGeometry relative="1" as="geometry"/>
                </mxCell>
                <mxCell id="63" style="edgeStyle=none;html=1;entryX=0;entryY=0.5;entryDx=0;entryDy=0;fontFamily=Courier New;startArrow=diamondThin;startFill=1;endArrow=none;endFill=0;sketch=1;curveFitting=1;jiggle=2;fontColor=#1A1A1A;labelBackgroundColor=none;strokeColor=#1A1A1A;" edge="1" parent="1" source="25" target="46">
                    <mxGeometry relative="1" as="geometry"/>
                </mxCell>
                <mxCell id="25" value="VectorBuffer" style="rounded=0;whiteSpace=wrap;html=1;sketch=1;curveFitting=1;jiggle=2;fontColor=#1A1A1A;labelBackgroundColor=none;strokeColor=#1A1A1A;fillColor=none;" vertex="1" parent="1">
                    <mxGeometry x="600" y="111" width="120" height="60" as="geometry"/>
                </mxCell>
                <mxCell id="26" value="Vec&amp;lt;u8&amp;gt;" style="rounded=0;whiteSpace=wrap;html=1;sketch=1;curveFitting=1;jiggle=2;fontColor=#1A1A1A;labelBackgroundColor=none;strokeColor=#1A1A1A;fillColor=none;" vertex="1" parent="1">
                    <mxGeometry x="800" y="111" width="120" height="60" as="geometry"/>
                </mxCell>
                <mxCell id="27" value="PointLayout for &lt;font face=&quot;Courier New&quot;&gt;Point&lt;/font&gt;" style="rounded=0;whiteSpace=wrap;html=1;sketch=1;curveFitting=1;jiggle=2;fontColor=#1A1A1A;labelBackgroundColor=none;strokeColor=#1A1A1A;fillColor=none;" vertex="1" parent="1">
                    <mxGeometry x="800" y="191" width="250" height="40" as="geometry"/>
                </mxCell>
                <mxCell id="41" value="" style="shape=table;startSize=0;container=1;collapsible=0;childLayout=tableLayout;sketch=1;curveFitting=1;jiggle=2;fontColor=#1A1A1A;labelBackgroundColor=none;strokeColor=#1A1A1A;fillColor=none;" vertex="1" parent="1">
                    <mxGeometry x="800" y="231" width="250" height="210" as="geometry"/>
                </mxCell>
                <mxCell id="42" value="" style="shape=tableRow;horizontal=0;startSize=0;swimlaneHead=0;swimlaneBody=0;top=0;left=0;bottom=0;right=0;collapsible=0;dropTarget=0;fillColor=none;points=[[0,0.5],[1,0.5]];portConstraint=eastwest;sketch=1;curveFitting=1;jiggle=2;fontColor=#1A1A1A;labelBackgroundColor=none;strokeColor=#1A1A1A;" vertex="1" parent="41">
                    <mxGeometry width="250" height="42" as="geometry"/>
                </mxCell>
                <mxCell id="43" value="Name" style="shape=partialRectangle;html=1;whiteSpace=wrap;connectable=0;overflow=hidden;fillColor=none;top=0;left=0;bottom=0;right=0;pointerEvents=1;sketch=1;curveFitting=1;jiggle=2;fontColor=#1A1A1A;labelBackgroundColor=none;strokeColor=#1A1A1A;" vertex="1" parent="42">
                    <mxGeometry width="110" height="42" as="geometry">
                        <mxRectangle width="110" height="42" as="alternateBounds"/>
                    </mxGeometry>
                </mxCell>
                <mxCell id="44" value="Data type" style="shape=partialRectangle;html=1;whiteSpace=wrap;connectable=0;overflow=hidden;fillColor=none;top=0;left=0;bottom=0;right=0;pointerEvents=1;sketch=1;curveFitting=1;jiggle=2;fontColor=#1A1A1A;labelBackgroundColor=none;strokeColor=#1A1A1A;" vertex="1" parent="42">
                    <mxGeometry x="110" width="90" height="42" as="geometry">
                        <mxRectangle width="90" height="42" as="alternateBounds"/>
                    </mxGeometry>
                </mxCell>
                <mxCell id="45" value="Offset" style="shape=partialRectangle;html=1;whiteSpace=wrap;connectable=0;overflow=hidden;fillColor=none;top=0;left=0;bottom=0;right=0;pointerEvents=1;sketch=1;curveFitting=1;jiggle=2;fontColor=#1A1A1A;labelBackgroundColor=none;strokeColor=#1A1A1A;" vertex="1" parent="42">
                    <mxGeometry x="200" width="50" height="42" as="geometry">
                        <mxRectangle width="50" height="42" as="alternateBounds"/>
                    </mxGeometry>
                </mxCell>
                <mxCell id="58" value="" style="shape=tableRow;horizontal=0;startSize=0;swimlaneHead=0;swimlaneBody=0;top=0;left=0;bottom=0;right=0;collapsible=0;dropTarget=0;fillColor=none;points=[[0,0.5],[1,0.5]];portConstraint=eastwest;sketch=1;curveFitting=1;jiggle=2;fontColor=#1A1A1A;labelBackgroundColor=none;strokeColor=#1A1A1A;" vertex="1" parent="41">
                    <mxGeometry y="42" width="250" height="42" as="geometry"/>
                </mxCell>
                <mxCell id="59" value="Position" style="shape=partialRectangle;html=1;whiteSpace=wrap;connectable=0;overflow=hidden;fillColor=none;top=0;left=0;bottom=0;right=0;pointerEvents=1;sketch=1;curveFitting=1;jiggle=2;fontColor=#1A1A1A;labelBackgroundColor=none;strokeColor=#1A1A1A;" vertex="1" parent="58">
                    <mxGeometry width="110" height="42" as="geometry">
                        <mxRectangle width="110" height="42" as="alternateBounds"/>
                    </mxGeometry>
                </mxCell>
                <mxCell id="60" value="Vector3&amp;lt;f64&amp;gt;" style="shape=partialRectangle;html=1;whiteSpace=wrap;connectable=0;overflow=hidden;fillColor=none;top=0;left=0;bottom=0;right=0;pointerEvents=1;sketch=1;curveFitting=1;jiggle=2;fontColor=#1A1A1A;labelBackgroundColor=none;strokeColor=#1A1A1A;" vertex="1" parent="58">
                    <mxGeometry x="110" width="90" height="42" as="geometry">
                        <mxRectangle width="90" height="42" as="alternateBounds"/>
                    </mxGeometry>
                </mxCell>
                <mxCell id="61" value="0" style="shape=partialRectangle;html=1;whiteSpace=wrap;connectable=0;overflow=hidden;fillColor=none;top=0;left=0;bottom=0;right=0;pointerEvents=1;sketch=1;curveFitting=1;jiggle=2;fontColor=#1A1A1A;labelBackgroundColor=none;strokeColor=#1A1A1A;" vertex="1" parent="58">
                    <mxGeometry x="200" width="50" height="42" as="geometry">
                        <mxRectangle width="50" height="42" as="alternateBounds"/>
                    </mxGeometry>
                </mxCell>
                <mxCell id="46" value="" style="shape=tableRow;horizontal=0;startSize=0;swimlaneHead=0;swimlaneBody=0;top=0;left=0;bottom=0;right=0;collapsible=0;dropTarget=0;fillColor=none;points=[[0,0.5],[1,0.5]];portConstraint=eastwest;sketch=1;curveFitting=1;jiggle=2;fontColor=#1A1A1A;labelBackgroundColor=none;strokeColor=#1A1A1A;" vertex="1" parent="41">
                    <mxGeometry y="84" width="250" height="42" as="geometry"/>
                </mxCell>
                <mxCell id="47" value="Color" style="shape=partialRectangle;html=1;whiteSpace=wrap;connectable=0;overflow=hidden;fillColor=none;top=0;left=0;bottom=0;right=0;pointerEvents=1;sketch=1;curveFitting=1;jiggle=2;fontColor=#1A1A1A;labelBackgroundColor=none;strokeColor=#1A1A1A;" vertex="1" parent="46">
                    <mxGeometry width="110" height="42" as="geometry">
                        <mxRectangle width="110" height="42" as="alternateBounds"/>
                    </mxGeometry>
                </mxCell>
                <mxCell id="48" value="Vector3&amp;lt;u8&amp;gt;" style="shape=partialRectangle;html=1;whiteSpace=wrap;connectable=0;overflow=hidden;fillColor=none;top=0;left=0;bottom=0;right=0;pointerEvents=1;sketch=1;curveFitting=1;jiggle=2;fontColor=#1A1A1A;labelBackgroundColor=none;strokeColor=#1A1A1A;" vertex="1" parent="46">
                    <mxGeometry x="110" width="90" height="42" as="geometry">
                        <mxRectangle width="90" height="42" as="alternateBounds"/>
                    </mxGeometry>
                </mxCell>
                <mxCell id="49" value="24" style="shape=partialRectangle;html=1;whiteSpace=wrap;connectable=0;overflow=hidden;fillColor=none;top=0;left=0;bottom=0;right=0;pointerEvents=1;sketch=1;curveFitting=1;jiggle=2;fontColor=#1A1A1A;labelBackgroundColor=none;strokeColor=#1A1A1A;" vertex="1" parent="46">
                    <mxGeometry x="200" width="50" height="42" as="geometry">
                        <mxRectangle width="50" height="42" as="alternateBounds"/>
                    </mxGeometry>
                </mxCell>
                <mxCell id="50" value="" style="shape=tableRow;horizontal=0;startSize=0;swimlaneHead=0;swimlaneBody=0;top=0;left=0;bottom=0;right=0;collapsible=0;dropTarget=0;fillColor=none;points=[[0,0.5],[1,0.5]];portConstraint=eastwest;sketch=1;curveFitting=1;jiggle=2;fontColor=#1A1A1A;labelBackgroundColor=none;strokeColor=#1A1A1A;" vertex="1" parent="41">
                    <mxGeometry y="126" width="250" height="42" as="geometry"/>
                </mxCell>
                <mxCell id="51" value="Classification" style="shape=partialRectangle;html=1;whiteSpace=wrap;connectable=0;overflow=hidden;fillColor=none;top=0;left=0;bottom=0;right=0;pointerEvents=1;sketch=1;curveFitting=1;jiggle=2;fontColor=#1A1A1A;labelBackgroundColor=none;strokeColor=#1A1A1A;" vertex="1" parent="50">
                    <mxGeometry width="110" height="42" as="geometry">
                        <mxRectangle width="110" height="42" as="alternateBounds"/>
                    </mxGeometry>
                </mxCell>
                <mxCell id="52" value="u8" style="shape=partialRectangle;html=1;whiteSpace=wrap;connectable=0;overflow=hidden;fillColor=none;top=0;left=0;bottom=0;right=0;pointerEvents=1;sketch=1;curveFitting=1;jiggle=2;fontColor=#1A1A1A;labelBackgroundColor=none;strokeColor=#1A1A1A;" vertex="1" parent="50">
                    <mxGeometry x="110" width="90" height="42" as="geometry">
                        <mxRectangle width="90" height="42" as="alternateBounds"/>
                    </mxGeometry>
                </mxCell>
                <mxCell id="53" value="25" style="shape=partialRectangle;html=1;whiteSpace=wrap;connectable=0;overflow=hidden;fillColor=none;top=0;left=0;bottom=0;right=0;pointerEvents=1;sketch=1;curveFitting=1;jiggle=2;fontColor=#1A1A1A;labelBackgroundColor=none;strokeColor=#1A1A1A;" vertex="1" parent="50">
                    <mxGeometry x="200" width="50" height="42" as="geometry">
                        <mxRectangle width="50" height="42" as="alternateBounds"/>
                    </mxGeometry>
                </mxCell>
                <mxCell id="54" value="" style="shape=tableRow;horizontal=0;startSize=0;swimlaneHead=0;swimlaneBody=0;top=0;left=0;bottom=0;right=0;collapsible=0;dropTarget=0;fillColor=none;points=[[0,0.5],[1,0.5]];portConstraint=eastwest;sketch=1;curveFitting=1;jiggle=2;fontColor=#1A1A1A;labelBackgroundColor=none;strokeColor=#1A1A1A;" vertex="1" parent="41">
                    <mxGeometry y="168" width="250" height="42" as="geometry"/>
                </mxCell>
                <mxCell id="55" value="NumberOfReturns" style="shape=partialRectangle;html=1;whiteSpace=wrap;connectable=0;overflow=hidden;fillColor=none;top=0;left=0;bottom=0;right=0;pointerEvents=1;sketch=1;curveFitting=1;jiggle=2;fontColor=#1A1A1A;labelBackgroundColor=none;strokeColor=#1A1A1A;" vertex="1" parent="54">
                    <mxGeometry width="110" height="42" as="geometry">
                        <mxRectangle width="110" height="42" as="alternateBounds"/>
                    </mxGeometry>
                </mxCell>
                <mxCell id="56" value="u8" style="shape=partialRectangle;html=1;whiteSpace=wrap;connectable=0;overflow=hidden;fillColor=none;top=0;left=0;bottom=0;right=0;pointerEvents=1;sketch=1;curveFitting=1;jiggle=2;fontColor=#1A1A1A;labelBackgroundColor=none;strokeColor=#1A1A1A;" vertex="1" parent="54">
                    <mxGeometry x="110" width="90" height="42" as="geometry">
                        <mxRectangle width="90" height="42" as="alternateBounds"/>
                    </mxGeometry>
                </mxCell>
                <mxCell id="57" value="26" style="shape=partialRectangle;html=1;whiteSpace=wrap;connectable=0;overflow=hidden;fillColor=none;top=0;left=0;bottom=0;right=0;pointerEvents=1;sketch=1;curveFitting=1;jiggle=2;fontColor=#1A1A1A;labelBackgroundColor=none;strokeColor=#1A1A1A;" vertex="1" parent="54">
                    <mxGeometry x="200" width="50" height="42" as="geometry">
                        <mxRectangle width="50" height="42" as="alternateBounds"/>
                    </mxGeometry>
                </mxCell>
            </root>
        </mxGraphModel>
    </diagram>
</mxfile>